# xmcd
#
# Track frame offsets:
#	150
#	16717
#	34610
#	55522
#	73987
#	94760
#	109082
#	127095
#	139077
#	156402
#	168845
#	180902
#	201335
#	217232
#	234875
#	245150
#
# Disc length: 3443 seconds
#
# Revision: 1
# Processed by: cddbd v1.5.2PL0 Copyright (c) Steve Scherf et al.
# Submitted via: audiograbber 1.83.01
#
DISCID=df0d7110
DTITLE=Various Artist - CDXMAS 1004
DYEAR=1993
DGENRE=Country
TTITLE0=Doug Wayne - Almost Time For Christmas
TTITLE1=Clinton Gregory - Christmas In Virginia
TTITLE2=Travis Tritt - Christmas Just Ain't Christmas
TTITLE3=Vince Gill - Have Yourself A Merry Little Christmas
TTITLE4=David Andrews - I Don't Need Anything For Christmas
TTITLE5=Ricky Van Shelton - I'll Be Home For Christmas
TTITLE6=Michael James - It Wasn't His Child
TTITLE7=The Geezinslaws - Lighten Up It's Christmas
TTITLE8=Lorrie Morgan - My Favorite Things
TTITLE9=Doug Stone - Santa's Flying A 747 Tonight
TTITLE10=Garth Brooks - The Old Man's Back In Town
TTITLE11=George Strait - There's A New Kid In Town
TTITLE12=Doug Stone - Three Little Pennies
TTITLE13=Kathy Mattea - What A Wonderful Beginning
TTITLE14=Kenny Rogers - Winter Wonderland
TTITLE15=Reddmann - Chasin' That Neon Reindeer
EXTD=
EXTT0=
EXTT1=
EXTT2=
EXTT3=
EXTT4=
EXTT5=
EXTT6=
EXTT7=
EXTT8=
EXTT9=
EXTT10=
EXTT11=
EXTT12=
EXTT13=
EXTT14=
EXTT15=
PLAYORDER=
